<svg width="110" height="135" viewBox="0 0 110 135" fill="none" xmlns="http://www.w3.org/2000/svg">
<path fill-rule="evenodd" clip-rule="evenodd" d="M101.351 37.4453H80.4414H75.7538H33.9418H29.2538H8.3438C7.0469 37.4453 6 38.4961 6 39.7891C6 41.0821 7.0469 42.1329 8.3438 42.1329H17.629V113.406C17.6329 118.148 21.4767 121.996 26.2228 122H83.4728C88.2189 121.996 92.0626 118.148 92.0666 113.406V42.1329H101.352C102.649 42.1329 103.696 41.0821 103.696 39.7891C103.696 38.4961 102.648 37.4453 101.351 37.4453ZM86.2349 116.167C86.9653 115.437 87.3794 114.441 87.3794 113.406L87.379 42.1327H22.317V113.406C22.317 115.562 24.063 117.312 26.2232 117.312H83.4732C84.5083 117.312 85.5005 116.902 86.2349 116.167Z" fill="black"/>
<path fill-rule="evenodd" clip-rule="evenodd" d="M100.973 36.6017L80.3001 33.4589L81.3299 26.6851C82.0388 21.9962 78.817 17.6146 74.1254 16.8972L40.5117 11.7869C35.8189 11.0774 31.4405 14.3036 30.7238 18.9913L29.694 25.7651L9.02153 22.6222C7.73936 22.4273 6.54641 23.3088 6.35207 24.5871C6.15773 25.8654 7.03479 27.0616 8.31696 27.2566L17.4967 28.6522L22.1314 29.3566L86.4543 39.1358L91.0886 39.8405L100.268 41.2362C101.551 41.4311 102.743 40.5496 102.938 39.2713C103.132 37.9929 102.255 36.7967 100.973 36.6017ZM39.8071 16.4212C37.6715 16.0965 35.6823 17.5642 35.3582 19.6959L34.3287 26.4697L75.6657 32.7543L76.6956 25.9805C76.8511 24.9572 76.5954 23.9107 75.983 23.0788C75.3673 22.2424 74.4481 21.6878 73.4209 21.5316L39.8071 16.4212Z" fill="black"/>
<path d="M34.1133 54.5586C32.8203 54.5586 31.7695 55.6094 31.7695 56.9024V102.543C31.7695 103.836 32.8203 104.887 34.1133 104.887C35.4102 104.887 36.4571 103.836 36.4571 102.543V56.9024C36.4571 55.6094 35.4102 54.5586 34.1133 54.5586Z" fill="black"/>
<path d="M54.8472 54.5586C53.5542 54.5586 52.5034 55.6094 52.5034 56.9024V102.543C52.5034 103.836 53.5542 104.887 54.8472 104.887C56.1402 104.887 57.191 103.836 57.191 102.543V56.9024C57.191 55.6094 56.1402 54.5586 54.8472 54.5586Z" fill="black"/>
<path d="M75.5811 54.5586C74.2842 54.5586 73.2373 55.6094 73.2373 56.9024V102.543C73.2373 103.836 74.2842 104.887 75.5811 104.887C76.8741 104.887 77.9249 103.836 77.9249 102.543V56.9024C77.9249 55.6094 76.8741 54.5586 75.5811 54.5586Z" fill="black"/>
</svg>
