<svg width="100" height="100" viewBox="0 0 100 100" fill="none" xmlns="http://www.w3.org/2000/svg">
<path d="M49.5 1C39.3 1 31 9.3 31 19.5C31 29.4 38.8 37.5 48.5 38V78C48.5 78.5 49 79 49.5 79C50 79 50.5 78.5 50.5 78V38C60.3 37.5 68 29.4 68 19.5C68.1 9.3 59.8 1 49.5 1ZM49.5 36.1C40.4 36.1 33 28.7 33 19.6C33 10.4 40.4 3 49.5 3C58.6 3 66 10.4 66 19.5C66.1 28.6 58.7 36.1 49.5 36.1Z" fill="black"/>
<path d="M60.4 20.4996C59.8 20.4996 59.4 20.0996 59.4 19.4996C59.4 14.0996 55 9.59961 49.5 9.59961C48.9 9.59961 48.5 9.19961 48.5 8.59961C48.5 7.99961 48.9 7.59961 49.5 7.59961C56 7.59961 61.4 12.8996 61.4 19.4996C61.4 20.0996 61 20.4996 60.4 20.4996Z" fill="black"/>
<path d="M50 99.4129C36.9 99.4129 27 95.4129 27 90.1129C27 85.6129 34.1 82.0129 44.7 81.0129C45.2 80.9129 45.7 81.4129 45.8 81.9129C45.9 82.4129 45.4 82.9129 44.9 83.0129C35.9 83.8129 29 86.9129 29 90.1129C29 93.6129 37.6 97.4129 50 97.4129C62.4 97.4129 71 93.5129 71 90.1129C71 86.9129 64.2 83.8129 55.1 83.0129C54.5 82.9129 54.1 82.5129 54.2 81.9129C54.3 81.4129 54.7 80.9129 55.3 81.0129C65.9 82.0129 73 85.6129 73 90.1129C73 95.4129 63.1 99.4129 50 99.4129Z" fill="black"/>
</svg>
