<svg width="100" height="100" viewBox="0 0 100 100" fill="none" xmlns="http://www.w3.org/2000/svg">
<path d="M61.5976 18.6008C51.5656 16.7571 41.9021 23.4201 40.0584 33.4521C38.2689 43.189 44.4763 52.5655 53.9261 54.8106L47.5997 89.2341C47.5093 89.7258 47.9107 90.308 48.4024 90.3984C48.8942 90.4887 49.4763 90.0874 49.5667 89.5956L55.8932 55.1721C65.6221 56.4518 74.6594 49.877 76.4489 40.1401C78.391 30.1262 71.728 20.4626 61.5976 18.6008ZM55.2531 53.1227C46.303 51.4778 40.3625 42.8621 42.0073 33.912C43.6703 24.8635 52.286 18.923 61.2361 20.5679C70.1862 22.2128 76.1267 30.8285 74.4818 39.7786C72.9353 48.7467 64.3015 54.7856 55.2531 53.1227Z" fill="black"/>
<path d="M55.2531 53.1227C46.303 51.4778 40.3625 42.8621 42.0073 33.912C43.6703 24.8635 52.286 18.923 61.2361 20.5679C70.1862 22.2128 76.1267 30.8285 74.4818 39.7786C72.9353 48.7467 64.3015 54.7856 55.2531 53.1227Z" fill="black"/>
<path d="M68.7931 39.7496C68.203 39.6412 67.8819 39.1755 67.9904 38.5854C68.9664 33.2743 65.4523 28.0531 60.0429 27.0589C59.4528 26.9505 59.1317 26.4848 59.2401 25.8947C59.3486 25.3045 59.8143 24.9834 60.4044 25.0919C66.7974 26.2668 71.1504 32.4556 69.9574 38.9469C69.849 39.537 69.3833 39.8581 68.7931 39.7496Z" fill="white"/>
<path d="M50 99.4129C36.9 99.4129 27 95.4129 27 90.1129C27 85.6129 34.1 82.0129 44.7 81.0129C45.2 80.9129 45.7 81.4129 45.8 81.9129C45.9 82.4129 45.4 82.9129 44.9 83.0129C35.9 83.8129 29 86.9129 29 90.1129C29 93.6129 37.6 97.4129 50 97.4129C62.4 97.4129 71 93.5129 71 90.1129C71 86.9129 64.2 83.8129 55.1 83.0129C54.5 82.9129 54.1 82.5129 54.2 81.9129C54.3 81.4129 54.7 80.9129 55.3 81.0129C65.9 82.0129 73 85.6129 73 90.1129C73 95.4129 63.1 99.4129 50 99.4129Z" fill="black"/>
</svg>
