<svg width="282" height="439" viewBox="0 0 282 439" fill="none" xmlns="http://www.w3.org/2000/svg">
<path d="M220 375L163.769 388.093L203.223 430.244L220 375ZM56.541 398.854C74.6015 409.054 98.3827 414.675 122.032 416.437C145.709 418.201 169.774 416.136 188.576 410.541L185.724 400.956C168.33 406.132 145.522 408.159 122.775 406.464C100.001 404.768 77.8051 399.379 61.459 390.146L56.541 398.854Z" fill="black"/>
<path d="M59.3239 91.2493L59.5 32L139.5 61.1689M139.5 317.5L246 354V100L139.5 61.1689M139.5 317.5V61.1689M139.5 317.5L36 358V100L139.5 61.1689M139.5 61.1689L222 32V91.2493" stroke="black" stroke-width="23"/>
</svg>
